<?xml version="1.0" standalone="no"?>
<!DOCTYPE svg PUBLIC "-//W3C//DTD SVG 20010904//EN"
 "http://www.w3.org/TR/2001/REC-SVG-20010904/DTD/svg10.dtd">
<svg version="1.0" xmlns="http://www.w3.org/2000/svg"
 width="500.000000pt" height="500.000000pt" viewBox="0 0 500.000000 500.000000"
 preserveAspectRatio="xMidYMid meet">
<metadata>
Created by potrace 1.14, written by Peter Selinger 2001-2017
</metadata>
<g transform="translate(0.000000,500.000000) scale(0.100000,-0.100000)"
fill="#000000" stroke="none">
<path d="M1002 4529 c-83 -10 -154 -37 -234 -91 -56 -38 -182 -148 -175 -154
1 -2 30 7 62 21 105 42 212 43 656 6 l77 -6 -155 -195 c-217 -273 -334 -410
-410 -480 -36 -33 -60 -60 -52 -60 8 1 41 7 74 15 70 17 160 19 236 5 131 -24
304 -143 379 -260 18 -28 36 -50 40 -50 14 0 255 160 259 171 6 19 -73 121
-132 171 -110 91 -251 145 -409 156 l-91 7 58 49 c31 27 137 140 235 250 190
214 325 351 403 406 26 18 47 34 47 35 0 1 -127 1 -282 1 -156 -1 -335 2 -398
5 -63 4 -148 3 -188 -2z"/>
<path d="M1674 3280 c-62 -41 -114 -79 -114 -84 0 -4 50 -5 110 -1 l111 7 -7
-481 -7 -481 110 0 111 0 6 93 c3 50 8 274 12 497 3 223 7 406 9 408 1 2 72 6
156 9 178 7 264 -4 388 -47 251 -88 428 -258 502 -483 13 -40 24 -73 25 -75 2
-4 205 118 222 132 10 10 8 23 -7 69 -38 109 -82 179 -171 268 -91 91 -173
141 -316 192 -137 49 -171 52 -613 52 l-413 0 -114 -75z"/>
<path d="M1623 3103 l-62 -4 0 -102 c0 -59 -7 -127 -16 -161 -75 -285 -372
-468 -693 -427 -143 18 -212 66 -212 149 0 17 -4 32 -8 32 -5 0 -35 -19 -68
-41 -150 -106 -228 -196 -206 -243 18 -40 202 -86 348 -86 205 0 486 98 682
237 84 60 242 210 273 260 17 27 20 56 26 212 3 100 4 180 2 179 -2 -1 -32 -3
-66 -5z"/>
<path d="M3730 2694 c-69 -7 -187 -13 -262 -13 l-137 -1 -118 -71 c-65 -39
-120 -73 -123 -76 -5 -6 109 3 185 13 l40 6 -4 -156 -3 -156 114 0 115 0 6
113 c4 61 7 135 7 163 l0 51 38 7 c20 3 87 6 148 6 85 0 124 -5 169 -20 184
-63 295 -216 295 -405 -1 -140 -59 -297 -146 -394 -58 -65 -115 -98 -195 -115
-74 -15 -169 -54 -169 -68 0 -11 85 -4 160 14 211 50 452 251 533 443 130 311
-23 604 -347 666 -62 12 -148 10 -306 -7z"/>
<path d="M3150 2443 c-43 -6 -50 -15 -50 -78 0 -27 -4 -67 -9 -87 l-9 -38 69
0 69 0 0 105 c0 116 6 107 -70 98z"/>
<path d="M1261 2191 c-30 -3 -56 -12 -59 -18 -2 -7 2 -13 10 -13 13 0 14 -38
5 -197 l-2 -43 58 0 c104 0 177 55 185 140 9 102 -57 146 -197 131z m110 -44
c40 -27 56 -73 43 -124 -11 -46 -49 -74 -108 -80 l-46 -6 0 49 c0 27 3 79 7
117 l6 67 32 0 c18 0 47 -10 66 -23z"/>
<path d="M1880 2189 c-38 -15 -80 -60 -80 -85 0 -26 7 -34 73 -74 30 -19 47
-37 47 -49 0 -36 -65 -55 -92 -27 -17 16 -48 4 -48 -19 0 -17 59 -30 90 -20
32 10 90 65 90 85 0 19 -38 54 -89 82 -40 22 -43 63 -5 80 20 9 30 9 46 -1 17
-11 23 -10 37 3 14 15 14 18 1 26 -19 12 -38 12 -70 -1z"/>
<path d="M2024 2185 c-17 -13 -17 -14 -2 -15 15 0 17 -13 17 -106 0 -59 -4
-115 -10 -125 -9 -17 -6 -19 24 -19 20 0 40 7 48 16 12 15 11 16 -7 10 -20 -6
-20 -3 -16 51 3 32 10 61 16 65 6 4 35 7 63 5 l53 -2 0 -60 c0 -34 -5 -66 -12
-73 -9 -9 -5 -12 19 -12 17 0 38 3 47 6 22 8 20 27 -1 20 -17 -5 -18 4 -15
112 2 95 6 119 19 130 15 10 12 12 -18 12 -37 0 -92 -29 -56 -30 13 0 17 -9
17 -40 l0 -40 -65 0 -65 0 0 45 c0 31 5 47 18 54 14 9 10 10 -19 11 -19 0 -44
-7 -55 -15z"/>
<path d="M2670 2178 c-59 -31 -82 -65 -88 -131 -4 -49 -2 -57 28 -90 43 -50
86 -57 148 -25 62 32 92 77 92 138 0 56 -26 95 -76 116 -44 19 -52 18 -104 -8z
m88 -28 c96 -59 52 -219 -55 -202 -13 2 -36 17 -53 33 -25 26 -30 38 -30 81 0
41 5 54 29 79 35 34 64 37 109 9z"/>
<path d="M3194 2185 c-18 -14 -19 -14 0 -15 18 0 19 -6 12 -117 -4 -75 -11
-120 -19 -125 -7 -4 3 -8 24 -8 19 0 44 7 55 15 19 15 19 16 -1 13 -19 -3 -20
2 -16 107 2 61 5 112 7 114 8 8 57 -14 67 -30 16 -26 0 -65 -33 -79 -16 -7
-30 -14 -30 -15 0 -2 28 -30 63 -64 63 -62 94 -74 117 -46 10 12 9 15 -7 15
-10 0 -40 22 -67 49 l-48 48 26 26 c35 35 35 79 0 106 -32 25 -120 29 -150 6z"/>
<path d="M3531 2191 c-30 -3 -56 -12 -59 -18 -2 -7 2 -13 10 -13 13 0 14 -38
5 -197 l-2 -43 58 0 c104 0 177 55 185 140 9 102 -57 146 -197 131z m110 -44
c40 -27 56 -73 43 -124 -11 -46 -49 -74 -108 -80 l-46 -6 0 49 c0 27 3 79 7
117 l6 67 32 0 c18 0 47 -10 66 -23z"/>
<path d="M1617 2173 c-8 -10 -29 -53 -47 -97 -37 -95 -59 -139 -74 -148 -6 -4
5 -8 24 -8 19 0 42 5 50 10 12 8 11 10 -7 10 -27 0 -28 3 -6 38 9 15 17 28 17
29 1 0 18 4 38 8 35 7 39 5 48 -20 6 -15 11 -38 12 -51 2 -19 8 -24 29 -24 15
0 35 3 44 6 14 6 13 8 -6 18 -17 8 -30 38 -57 129 -19 64 -38 117 -42 117 -4
0 -14 -8 -23 -17z m13 -75 c0 -7 3 -23 6 -35 5 -20 2 -23 -21 -23 -22 0 -26 3
-20 18 4 9 10 25 12 35 6 20 23 23 23 5z"/>
<path d="M2340 2180 c-13 -8 -12 -10 3 -10 15 0 17 -11 17 -99 0 -55 -4 -111
-10 -125 -9 -26 -9 -26 41 -26 56 0 100 19 123 52 22 32 20 55 -9 84 -23 22
-24 27 -10 40 20 21 19 57 -3 77 -21 19 -126 24 -152 7z m117 -37 c15 -19 7
-43 -26 -70 l-26 -23 26 0 c32 0 45 -15 51 -56 5 -37 -15 -54 -63 -54 -24 0
-30 3 -25 16 3 9 6 61 6 115 0 99 0 100 23 94 12 -4 27 -14 34 -22z"/>
<path d="M3007 2173 c-8 -10 -29 -53 -47 -97 -37 -95 -59 -139 -74 -148 -6 -4
5 -8 24 -8 19 0 42 5 50 10 12 8 11 10 -7 10 -27 0 -28 3 -6 38 9 15 17 28 17
29 1 0 18 4 38 8 35 7 39 5 48 -20 6 -15 11 -38 12 -51 2 -19 8 -24 29 -24 15
0 35 3 44 6 14 6 13 8 -6 18 -17 8 -30 38 -57 129 -19 64 -38 117 -42 117 -4
0 -14 -8 -23 -17z m17 -85 c10 -40 7 -48 -20 -48 -21 0 -25 3 -19 18 4 9 10
25 12 35 7 24 19 21 27 -5z"/>
<path d="M1760 1808 c0 -82 -21 -191 -44 -237 -9 -17 -29 -38 -44 -46 -25 -14
0 -15 293 -11 270 4 334 7 410 24 240 52 478 167 625 300 l45 41 -68 1 c-67 0
-68 0 -134 -55 -78 -64 -199 -126 -298 -152 -61 -16 -105 -18 -348 -16 -153 2
-283 5 -288 8 -5 3 3 23 17 45 26 39 54 118 54 152 0 16 -10 18 -110 18 l-110
0 0 -72z"/>
<path d="M3306 1819 c-3 -34 -6 -132 -6 -218 0 -256 -33 -631 -60 -682 -5 -9
-33 -32 -62 -50 l-53 -34 35 -3 c19 -2 91 -2 160 0 97 3 140 9 190 27 63 22
270 116 270 123 0 2 -65 2 -145 0 -80 -3 -155 -2 -168 2 l-24 6 29 57 c34 69
43 164 54 576 l7 257 -110 0 -110 0 -7 -61z"/>
</g>
</svg>
